# Blender v2.92.0 OBJ File: 'drinker.blend'
# www.blender.org
mtllib drinker.mtl
o Cube
v 5.704293 1.000000 -0.743897
v 5.929317 -1.000000 -1.000000
v 5.704293 1.000000 0.743897
v 5.929317 -1.000000 1.000000
v -5.704293 1.000000 -0.743897
v -5.929317 -1.000000 -1.000000
v -5.704293 1.000000 0.743897
v -5.929317 -1.000000 1.000000
v 5.929317 1.000000 1.000000
v -5.929317 1.000000 1.000000
v 5.929317 1.000000 -1.000000
v -5.929317 1.000000 -1.000000
v 5.704293 -0.167106 0.743897
v -5.704293 -0.167106 0.743897
v 5.704293 -0.167106 -0.743897
v -5.704293 -0.167106 -0.743897
v 5.704293 -0.367793 0.743897
v -5.704293 -0.367793 0.743897
v 5.704293 -0.367793 -0.743897
v -5.704293 -0.367793 -0.743897
vt 0.670924 0.545924
vt 0.829076 0.545924
vt 0.829076 0.545924
vt 0.670924 0.545924
vt 0.375000 0.750000
vt 0.625000 0.750000
vt 0.625000 1.000000
vt 0.375000 1.000000
vt 0.375000 0.000000
vt 0.625000 0.000000
vt 0.625000 0.250000
vt 0.375000 0.250000
vt 0.125000 0.500000
vt 0.375000 0.500000
vt 0.125000 0.750000
vt 0.625000 0.500000
vt 0.670924 0.704076
vt 0.829076 0.704076
vt 0.875000 0.750000
vt 0.875000 0.500000
vt 0.829076 0.704076
vt 0.829076 0.704076
vt 0.829076 0.545924
vt 0.670924 0.704076
vt 0.670924 0.545924
vt 0.670924 0.704076
vn 0.0000 0.0000 1.0000
vn -1.0000 0.0000 0.0000
vn 0.0000 -1.0000 0.0000
vn 1.0000 0.0000 0.0000
vn 0.0000 0.0000 -1.0000
vn 0.0000 1.0000 0.0000
usemtl Material.001
s off
f 1/1/1 5/2/1 16/3/1 15/4/1
f 4/5/1 9/6/1 10/7/1 8/8/1
f 8/9/2 10/10/2 12/11/2 6/12/2
f 6/13/3 2/14/3 4/5/3 8/15/3
f 2/14/4 11/16/4 9/6/4 4/5/4
f 6/12/5 12/11/5 11/16/5 2/14/5
f 3/17/6 7/18/6 10/19/6 9/6/6
f 1/1/6 3/17/6 9/6/6 11/16/6
f 7/18/6 5/2/6 12/20/6 10/19/6
f 5/2/6 1/1/6 11/16/6 12/20/6
f 16/3/4 14/21/4 18/22/4 20/23/4
f 3/17/2 1/1/2 15/4/2 13/24/2
f 5/2/4 7/18/4 14/21/4 16/3/4
f 7/18/5 3/17/5 13/24/5 14/21/5
f 19/25/6 20/23/6 18/22/6 17/26/6
f 14/21/5 13/24/5 17/26/5 18/22/5
f 15/4/1 16/3/1 20/23/1 19/25/1
f 13/24/2 15/4/2 19/25/2 17/26/2
