# Blender v2.92.0 OBJ File: 'Silo.blend'
# www.blender.org
mtllib Silo.mtl
o Cylinder
v 0.000000 -0.002008 -3.552716
v 0.000000 13.968524 -3.552716
v 3.076742 -0.002008 -1.776358
v 3.076742 13.968524 -1.776358
v 3.076742 -0.002008 1.776358
v 3.076742 13.968524 1.776358
v -0.000000 -0.002008 3.552716
v -0.000000 13.968524 3.552716
v -3.076742 -0.002008 1.776357
v -3.076742 13.968524 1.776357
v -3.076742 -0.002008 -1.776357
v -3.076742 13.968524 -1.776357
vt 1.000000 0.500000
vt 1.000000 1.000000
vt 0.833333 1.000000
vt 0.833333 0.500000
vt 0.666667 1.000000
vt 0.666667 0.500000
vt 0.500000 1.000000
vt 0.500000 0.500000
vt 0.333333 1.000000
vt 0.333333 0.500000
vt 0.457846 0.370000
vt 0.250000 0.490000
vt 0.042154 0.370000
vt 0.042154 0.130000
vt 0.250000 0.010000
vt 0.457846 0.130000
vt 0.166667 1.000000
vt 0.166667 0.500000
vt -0.000000 1.000000
vt -0.000000 0.500000
vt 0.750000 0.490000
vt 0.957846 0.370000
vt 0.957846 0.130000
vt 0.750000 0.010000
vt 0.542154 0.130000
vt 0.542154 0.370000
vn 0.5000 0.0000 -0.8660
vn 1.0000 0.0000 0.0000
vn 0.5000 0.0000 0.8660
vn -0.5000 0.0000 0.8660
vn 0.0000 1.0000 0.0000
vn -1.0000 0.0000 0.0000
vn -0.5000 0.0000 -0.8660
vn 0.0000 -1.0000 -0.0000
usemtl Material.001
s off
f 1/1/1 2/2/1 4/3/1 3/4/1
f 3/4/2 4/3/2 6/5/2 5/6/2
f 5/6/3 6/5/3 8/7/3 7/8/3
f 7/8/4 8/7/4 10/9/4 9/10/4
f 4/11/5 2/12/5 12/13/5 10/14/5 8/15/5 6/16/5
f 9/10/6 10/9/6 12/17/6 11/18/6
f 11/18/7 12/17/7 2/19/7 1/20/7
f 1/21/8 3/22/8 5/23/8 7/24/8 9/25/8 11/26/8
o Sphere_Sphere.001
v -0.002811 18.547352 -2.491174
v -0.002811 13.802130 -4.216962
v 2.157672 18.547352 -1.243819
v 3.492924 16.425224 -2.014727
v 3.652248 13.802130 -2.106713
v 2.157672 18.547352 1.250892
v 3.492924 16.425224 2.021800
v 3.652248 13.802130 2.113786
v -0.002811 18.547352 2.498247
v -0.002811 16.425224 4.040063
v -0.002811 13.802130 4.224035
v -0.002811 19.357931 0.003537
v -2.163294 18.547352 1.250891
v -3.498546 16.425224 2.021799
v -3.657870 13.802130 2.113785
v -2.163293 18.547352 -1.243820
v -3.498545 16.425224 -2.014728
v -3.657869 13.802130 -2.106714
v -0.002809 16.425224 -4.032990
vt 0.666667 0.600000
vt 0.666667 0.800000
vt 0.500000 0.800000
vt 0.500000 0.600000
vt 0.666667 0.400000
vt 0.500000 0.400000
vt 0.583333 1.000000
vt 0.333333 0.600000
vt 0.333333 0.400000
vt 0.416667 1.000000
vt 0.333333 0.800000
vt 0.166667 0.600000
vt 0.166667 0.400000
vt 0.250000 1.000000
vt 0.166667 0.800000
vt 0.000000 0.600000
vt 0.000000 0.400000
vt 0.083333 1.000000
vt 0.000000 0.800000
vt 1.000000 0.400000
vt 1.000000 0.600000
vt 0.833333 0.600000
vt 0.833333 0.400000
vt 1.000000 0.800000
vt 0.916667 1.000000
vt 0.833333 0.800000
vt 0.750000 1.000000
vn 0.4232 0.5326 -0.7330
vn 0.4991 0.0606 -0.8644
vn 0.1756 0.9363 -0.3042
vn 0.9982 0.0606 0.0000
vn 0.3513 0.9363 0.0000
vn 0.8464 0.5326 0.0000
vn 0.4991 0.0606 0.8644
vn 0.1756 0.9363 0.3042
vn 0.4232 0.5326 0.7330
vn -0.4991 0.0606 0.8644
vn -0.1756 0.9363 0.3042
vn -0.4232 0.5326 0.7330
vn -0.9982 0.0606 -0.0000
vn -0.3513 0.9363 0.0000
vn -0.8464 0.5326 -0.0000
vn -0.4991 0.0606 -0.8644
vn -0.1756 0.9363 -0.3042
vn -0.4232 0.5326 -0.7330
vn 0.0000 -1.0000 -0.0000
usemtl None
s off
f 31/27/9 13/28/9 15/29/9 16/30/9
f 14/31/10 31/27/10 16/30/10 17/32/10
f 13/28/11 24/33/11 15/29/11
f 17/32/12 16/30/12 19/34/12 20/35/12
f 15/29/13 24/36/13 18/37/13
f 16/30/14 15/29/14 18/37/14 19/34/14
f 20/35/15 19/34/15 22/38/15 23/39/15
f 18/37/16 24/40/16 21/41/16
f 19/34/17 18/37/17 21/41/17 22/38/17
f 23/39/18 22/38/18 26/42/18 27/43/18
f 21/41/19 24/44/19 25/45/19
f 22/38/20 21/41/20 25/45/20 26/42/20
f 27/46/21 26/47/21 29/48/21 30/49/21
f 25/50/22 24/51/22 28/52/22
f 26/47/23 25/50/23 28/52/23 29/48/23
f 30/49/24 29/48/24 31/27/24 14/31/24
f 28/52/25 24/53/25 13/28/25
f 29/48/26 28/52/26 13/28/26 31/27/26
f 17/32/27 20/35/27 23/39/27 27/43/27 30/49/27 14/31/27
o Cube.002_Cube.003
v 0.875602 1.023836 3.107823
v 0.875602 1.196211 3.107823
v 0.824841 1.023836 3.017765
v 0.824841 1.196211 3.017765
v 2.235940 1.023836 2.341065
v 2.235940 1.196211 2.341065
v 2.185179 1.023836 2.251007
v 2.185179 1.196211 2.251007
v 0.840892 0.035955 3.169340
v 0.840892 4.009855 3.169340
v 0.754240 0.035955 3.015607
v 0.754240 4.009855 3.015607
v 0.994625 0.035955 3.082688
v 0.994625 4.009855 3.082688
v 0.907973 0.035955 2.928955
v 0.907973 4.009855 2.928955
v 2.160526 0.035955 2.425524
v 2.160526 4.009855 2.425524
v 2.073874 0.035955 2.271792
v 2.073874 4.009855 2.271792
v 2.314259 0.035955 2.338873
v 2.314259 4.009855 2.338873
v 2.227607 0.035955 2.185140
v 2.227607 4.009855 2.185140
v 0.875602 2.015818 3.107823
v 0.875602 2.188193 3.107823
v 0.824841 2.015818 3.017765
v 0.824841 2.188193 3.017765
v 2.235940 2.015818 2.341065
v 2.235940 2.188193 2.341065
v 2.185179 2.015818 2.251007
v 2.185179 2.188193 2.251007
v 0.875602 3.030870 3.107823
v 0.875602 3.203244 3.107823
v 0.824841 3.030870 3.017765
v 0.824841 3.203244 3.017765
v 2.235940 3.030870 2.341065
v 2.235940 3.203244 2.341065
v 2.185179 3.030870 2.251007
v 2.185179 3.203244 2.251007
v 0.840892 3.040095 3.169340
v 0.840892 7.013995 3.169340
v 0.754240 3.040095 3.015607
v 0.754240 7.013995 3.015607
v 0.994625 3.040095 3.082688
v 0.994625 7.013995 3.082688
v 0.907973 3.040095 2.928955
v 0.907973 7.013995 2.928955
v 2.160526 3.040095 2.425524
v 2.160526 7.013995 2.425524
v 2.073874 3.040095 2.271792
v 2.073874 7.013995 2.271792
v 2.314259 3.040095 2.338873
v 2.314259 7.013995 2.338873
v 2.227607 3.040095 2.185140
v 2.227607 7.013995 2.185140
v 0.875602 4.027975 3.107823
v 0.875602 4.200350 3.107823
v 0.824841 4.027975 3.017765
v 0.824841 4.200350 3.017765
v 2.235940 4.027975 2.341065
v 2.235940 4.200350 2.341065
v 2.185179 4.027975 2.251007
v 2.185179 4.200350 2.251007
v 0.875602 5.019958 3.107823
v 0.875602 5.192332 3.107823
v 0.824841 5.019958 3.017765
v 0.824841 5.192332 3.017765
v 2.235940 5.019958 2.341065
v 2.235940 5.192332 2.341065
v 2.185179 5.019958 2.251007
v 2.185179 5.192332 2.251007
v 0.875602 6.035009 3.107823
v 0.875602 6.207383 3.107823
v 0.824841 6.035009 3.017765
v 0.824841 6.207383 3.017765
v 2.235940 6.035009 2.341065
v 2.235940 6.207383 2.341065
v 2.185179 6.035009 2.251007
v 2.185179 6.207383 2.251007
v 0.840892 6.048979 3.169340
v 0.840892 10.022880 3.169340
v 0.754240 6.048979 3.015607
v 0.754240 10.022880 3.015607
v 0.994625 6.048979 3.082688
v 0.994625 10.022880 3.082688
v 0.907973 6.048979 2.928955
v 0.907973 10.022880 2.928955
v 2.160526 6.048979 2.425524
v 2.160526 10.022880 2.425524
v 2.073874 6.048979 2.271792
v 2.073874 10.022880 2.271792
v 2.314259 6.048979 2.338873
v 2.314259 10.022880 2.338873
v 2.227607 6.048979 2.185140
v 2.227607 10.022880 2.185140
v 0.875602 7.036860 3.107823
v 0.875602 7.209234 3.107823
v 0.824841 7.036860 3.017765
v 0.824841 7.209234 3.017765
v 2.235940 7.036860 2.341065
v 2.235940 7.209234 2.341065
v 2.185179 7.036860 2.251007
v 2.185179 7.209234 2.251007
v 0.875602 8.028841 3.107823
v 0.875602 8.201216 3.107823
v 0.824841 8.028841 3.017765
v 0.824841 8.201216 3.017765
v 2.235940 8.028841 2.341065
v 2.235940 8.201216 2.341065
v 2.185179 8.028841 2.251007
v 2.185179 8.201216 2.251007
v 0.875602 9.043892 3.107823
v 0.875602 9.216267 3.107823
v 0.824841 9.043892 3.017765
v 0.824841 9.216267 3.017765
v 2.235940 9.043892 2.341065
v 2.235940 9.216267 2.341065
v 2.185179 9.043892 2.251007
v 2.185179 9.216267 2.251007
vt 0.375000 0.000000
vt 0.625000 0.000000
vt 0.625000 0.250000
vt 0.375000 0.250000
vt 0.625000 0.500000
vt 0.375000 0.500000
vt 0.625000 0.750000
vt 0.375000 0.750000
vt 0.625000 1.000000
vt 0.375000 1.000000
vt 0.125000 0.500000
vt 0.125000 0.750000
vt 0.875000 0.500000
vt 0.875000 0.750000
vt 0.375000 0.000000
vt 0.625000 0.000000
vt 0.625000 0.250000
vt 0.375000 0.250000
vt 0.625000 0.500000
vt 0.375000 0.500000
vt 0.625000 0.750000
vt 0.375000 0.750000
vt 0.625000 1.000000
vt 0.375000 1.000000
vt 0.125000 0.500000
vt 0.125000 0.750000
vt 0.875000 0.500000
vt 0.875000 0.750000
vt 0.375000 0.000000
vt 0.625000 0.000000
vt 0.625000 0.250000
vt 0.375000 0.250000
vt 0.625000 0.500000
vt 0.375000 0.500000
vt 0.625000 0.750000
vt 0.375000 0.750000
vt 0.625000 1.000000
vt 0.375000 1.000000
vt 0.125000 0.500000
vt 0.125000 0.750000
vt 0.875000 0.500000
vt 0.875000 0.750000
vt 0.375000 0.000000
vt 0.625000 0.000000
vt 0.625000 0.250000
vt 0.375000 0.250000
vt 0.625000 0.500000
vt 0.375000 0.500000
vt 0.625000 0.750000
vt 0.375000 0.750000
vt 0.625000 1.000000
vt 0.375000 1.000000
vt 0.125000 0.500000
vt 0.125000 0.750000
vt 0.875000 0.500000
vt 0.875000 0.750000
vt 0.375000 0.000000
vt 0.625000 0.000000
vt 0.625000 0.250000
vt 0.375000 0.250000
vt 0.625000 0.500000
vt 0.375000 0.500000
vt 0.625000 0.750000
vt 0.375000 0.750000
vt 0.625000 1.000000
vt 0.375000 1.000000
vt 0.125000 0.500000
vt 0.125000 0.750000
vt 0.875000 0.500000
vt 0.875000 0.750000
vt 0.375000 0.000000
vt 0.625000 0.000000
vt 0.625000 0.250000
vt 0.375000 0.250000
vt 0.625000 0.500000
vt 0.375000 0.500000
vt 0.625000 0.750000
vt 0.375000 0.750000
vt 0.625000 1.000000
vt 0.375000 1.000000
vt 0.125000 0.500000
vt 0.125000 0.750000
vt 0.875000 0.500000
vt 0.875000 0.750000
vt 0.375000 0.000000
vt 0.625000 0.000000
vt 0.625000 0.250000
vt 0.375000 0.250000
vt 0.625000 0.500000
vt 0.375000 0.500000
vt 0.625000 0.750000
vt 0.375000 0.750000
vt 0.625000 1.000000
vt 0.375000 1.000000
vt 0.125000 0.500000
vt 0.125000 0.750000
vt 0.875000 0.500000
vt 0.875000 0.750000
vt 0.375000 0.000000
vt 0.625000 0.000000
vt 0.625000 0.250000
vt 0.375000 0.250000
vt 0.625000 0.500000
vt 0.375000 0.500000
vt 0.625000 0.750000
vt 0.375000 0.750000
vt 0.625000 1.000000
vt 0.375000 1.000000
vt 0.125000 0.500000
vt 0.125000 0.750000
vt 0.875000 0.500000
vt 0.875000 0.750000
vt 0.375000 0.000000
vt 0.625000 0.000000
vt 0.625000 0.250000
vt 0.375000 0.250000
vt 0.625000 0.500000
vt 0.375000 0.500000
vt 0.625000 0.750000
vt 0.375000 0.750000
vt 0.625000 1.000000
vt 0.375000 1.000000
vt 0.125000 0.500000
vt 0.125000 0.750000
vt 0.875000 0.500000
vt 0.875000 0.750000
vt 0.375000 0.000000
vt 0.625000 0.000000
vt 0.625000 0.250000
vt 0.375000 0.250000
vt 0.625000 0.500000
vt 0.375000 0.500000
vt 0.625000 0.750000
vt 0.375000 0.750000
vt 0.625000 1.000000
vt 0.375000 1.000000
vt 0.125000 0.500000
vt 0.125000 0.750000
vt 0.875000 0.500000
vt 0.875000 0.750000
vt 0.375000 0.000000
vt 0.625000 0.000000
vt 0.625000 0.250000
vt 0.375000 0.250000
vt 0.625000 0.500000
vt 0.375000 0.500000
vt 0.625000 0.750000
vt 0.375000 0.750000
vt 0.625000 1.000000
vt 0.375000 1.000000
vt 0.125000 0.500000
vt 0.125000 0.750000
vt 0.875000 0.500000
vt 0.875000 0.750000
vt 0.375000 0.000000
vt 0.625000 0.000000
vt 0.625000 0.250000
vt 0.375000 0.250000
vt 0.625000 0.500000
vt 0.375000 0.500000
vt 0.625000 0.750000
vt 0.375000 0.750000
vt 0.625000 1.000000
vt 0.375000 1.000000
vt 0.125000 0.500000
vt 0.125000 0.750000
vt 0.875000 0.500000
vt 0.875000 0.750000
vt 0.375000 0.000000
vt 0.625000 0.000000
vt 0.625000 0.250000
vt 0.375000 0.250000
vt 0.625000 0.500000
vt 0.375000 0.500000
vt 0.625000 0.750000
vt 0.375000 0.750000
vt 0.625000 1.000000
vt 0.375000 1.000000
vt 0.125000 0.500000
vt 0.125000 0.750000
vt 0.875000 0.500000
vt 0.875000 0.750000
vt 0.375000 0.000000
vt 0.625000 0.000000
vt 0.625000 0.250000
vt 0.375000 0.250000
vt 0.625000 0.500000
vt 0.375000 0.500000
vt 0.625000 0.750000
vt 0.375000 0.750000
vt 0.625000 1.000000
vt 0.375000 1.000000
vt 0.125000 0.500000
vt 0.125000 0.750000
vt 0.875000 0.500000
vt 0.875000 0.750000
vt 0.375000 0.000000
vt 0.625000 0.000000
vt 0.625000 0.250000
vt 0.375000 0.250000
vt 0.625000 0.500000
vt 0.375000 0.500000
vt 0.625000 0.750000
vt 0.375000 0.750000
vt 0.625000 1.000000
vt 0.375000 1.000000
vt 0.125000 0.500000
vt 0.125000 0.750000
vt 0.875000 0.500000
vt 0.875000 0.750000
vn -0.8711 0.0000 0.4910
vn -0.4910 0.0000 -0.8711
vn 0.8711 0.0000 -0.4910
vn 0.4910 0.0000 0.8711
vn 0.0000 -1.0000 0.0000
vn 0.0000 1.0000 0.0000
usemtl Material.002
s off
f 32/54/28 33/55/28 35/56/28 34/57/28
f 34/57/29 35/56/29 39/58/29 38/59/29
f 38/59/30 39/58/30 37/60/30 36/61/30
f 36/61/31 37/60/31 33/62/31 32/63/31
f 34/64/32 38/59/32 36/61/32 32/65/32
f 39/58/33 35/66/33 33/67/33 37/60/33
f 40/68/28 41/69/28 43/70/28 42/71/28
f 42/71/29 43/70/29 47/72/29 46/73/29
f 46/73/30 47/72/30 45/74/30 44/75/30
f 44/75/31 45/74/31 41/76/31 40/77/31
f 42/78/32 46/73/32 44/75/32 40/79/32
f 47/72/33 43/80/33 41/81/33 45/74/33
f 48/82/28 49/83/28 51/84/28 50/85/28
f 50/85/29 51/84/29 55/86/29 54/87/29
f 54/87/30 55/86/30 53/88/30 52/89/30
f 52/89/31 53/88/31 49/90/31 48/91/31
f 50/92/32 54/87/32 52/89/32 48/93/32
f 55/86/33 51/94/33 49/95/33 53/88/33
f 56/96/28 57/97/28 59/98/28 58/99/28
f 58/99/29 59/98/29 63/100/29 62/101/29
f 62/101/30 63/100/30 61/102/30 60/103/30
f 60/103/31 61/102/31 57/104/31 56/105/31
f 58/106/32 62/101/32 60/103/32 56/107/32
f 63/100/33 59/108/33 57/109/33 61/102/33
f 64/110/28 65/111/28 67/112/28 66/113/28
f 66/113/29 67/112/29 71/114/29 70/115/29
f 70/115/30 71/114/30 69/116/30 68/117/30
f 68/117/31 69/116/31 65/118/31 64/119/31
f 66/120/32 70/115/32 68/117/32 64/121/32
f 71/114/33 67/122/33 65/123/33 69/116/33
f 72/124/28 73/125/28 75/126/28 74/127/28
f 74/127/29 75/126/29 79/128/29 78/129/29
f 78/129/30 79/128/30 77/130/30 76/131/30
f 76/131/31 77/130/31 73/132/31 72/133/31
f 74/134/32 78/129/32 76/131/32 72/135/32
f 79/128/33 75/136/33 73/137/33 77/130/33
f 80/138/28 81/139/28 83/140/28 82/141/28
f 82/141/29 83/140/29 87/142/29 86/143/29
f 86/143/30 87/142/30 85/144/30 84/145/30
f 84/145/31 85/144/31 81/146/31 80/147/31
f 82/148/32 86/143/32 84/145/32 80/149/32
f 87/142/33 83/150/33 81/151/33 85/144/33
f 88/152/28 89/153/28 91/154/28 90/155/28
f 90/155/29 91/154/29 95/156/29 94/157/29
f 94/157/30 95/156/30 93/158/30 92/159/30
f 92/159/31 93/158/31 89/160/31 88/161/31
f 90/162/32 94/157/32 92/159/32 88/163/32
f 95/156/33 91/164/33 89/165/33 93/158/33
f 96/166/28 97/167/28 99/168/28 98/169/28
f 98/169/29 99/168/29 103/170/29 102/171/29
f 102/171/30 103/170/30 101/172/30 100/173/30
f 100/173/31 101/172/31 97/174/31 96/175/31
f 98/176/32 102/171/32 100/173/32 96/177/32
f 103/170/33 99/178/33 97/179/33 101/172/33
f 104/180/28 105/181/28 107/182/28 106/183/28
f 106/183/29 107/182/29 111/184/29 110/185/29
f 110/185/30 111/184/30 109/186/30 108/187/30
f 108/187/31 109/186/31 105/188/31 104/189/31
f 106/190/32 110/185/32 108/187/32 104/191/32
f 111/184/33 107/192/33 105/193/33 109/186/33
f 112/194/28 113/195/28 115/196/28 114/197/28
f 114/197/29 115/196/29 119/198/29 118/199/29
f 118/199/30 119/198/30 117/200/30 116/201/30
f 116/201/31 117/200/31 113/202/31 112/203/31
f 114/204/32 118/199/32 116/201/32 112/205/32
f 119/198/33 115/206/33 113/207/33 117/200/33
f 120/208/28 121/209/28 123/210/28 122/211/28
f 122/211/29 123/210/29 127/212/29 126/213/29
f 126/213/30 127/212/30 125/214/30 124/215/30
f 124/215/31 125/214/31 121/216/31 120/217/31
f 122/218/32 126/213/32 124/215/32 120/219/32
f 127/212/33 123/220/33 121/221/33 125/214/33
f 128/222/28 129/223/28 131/224/28 130/225/28
f 130/225/29 131/224/29 135/226/29 134/227/29
f 134/227/30 135/226/30 133/228/30 132/229/30
f 132/229/31 133/228/31 129/230/31 128/231/31
f 130/232/32 134/227/32 132/229/32 128/233/32
f 135/226/33 131/234/33 129/235/33 133/228/33
f 136/236/28 137/237/28 139/238/28 138/239/28
f 138/239/29 139/238/29 143/240/29 142/241/29
f 142/241/30 143/240/30 141/242/30 140/243/30
f 140/243/31 141/242/31 137/244/31 136/245/31
f 138/246/32 142/241/32 140/243/32 136/247/32
f 143/240/33 139/248/33 137/249/33 141/242/33
f 144/250/28 145/251/28 147/252/28 146/253/28
f 146/253/29 147/252/29 151/254/29 150/255/29
f 150/255/30 151/254/30 149/256/30 148/257/30
f 148/257/31 149/256/31 145/258/31 144/259/31
f 146/260/32 150/255/32 148/257/32 144/261/32
f 151/254/33 147/262/33 145/263/33 149/256/33
o Cube_Cube.021
v 0.739659 10.435832 3.426391
v 0.739659 13.385844 3.426391
v 0.509600 10.435832 3.024993
v 0.509600 13.385844 3.024993
v 2.673239 10.435832 2.318172
v 2.673239 13.385844 2.318172
v 2.443179 10.435832 1.916773
v 2.443179 13.385844 1.916773
v 0.710255 10.435832 2.909989
v 0.710255 13.385844 2.909989
v 0.940314 10.435832 3.311388
v 0.940314 13.385844 3.311388
v 2.224284 13.385844 2.042232
v 2.454343 10.435832 2.443631
v 2.224284 10.435832 2.042232
v 2.454343 13.385844 2.443631
v 0.739659 13.154058 3.426391
v 0.509600 13.154058 3.024993
v 2.443179 13.154058 1.916773
v 2.673239 13.154058 2.318172
v 0.940314 13.154058 3.311388
v 0.710255 13.154058 2.909989
v 2.454343 13.154058 2.443631
v 2.224284 13.154058 2.042232
v 0.509600 10.688690 3.024993
v 2.443179 10.688690 1.916773
v 2.673239 10.688690 2.318172
v 0.940314 10.688690 3.311388
v 0.710255 10.688690 2.909989
v 2.454343 10.688690 2.443631
v 2.224284 10.688690 2.042232
v 0.739659 10.688690 3.426391
v 2.353578 13.154058 2.267820
v 0.839549 13.154058 3.135577
v 0.839549 10.688690 3.135577
v 2.353578 10.688690 2.267820
vt 0.605357 0.000000
vt 0.625000 0.000000
vt 0.625000 0.250000
vt 0.605357 0.250000
vt 0.605357 0.471698
vt 0.625000 0.471698
vt 0.625000 0.500000
vt 0.605357 0.500000
vt 0.625000 0.750000
vt 0.605357 0.750000
vt 0.605357 0.974057
vt 0.625000 0.974057
vt 0.625000 1.000000
vt 0.605357 1.000000
vt 0.346698 0.500000
vt 0.375000 0.500000
vt 0.375000 0.750000
vt 0.346698 0.750000
vt 0.849057 0.500000
vt 0.875000 0.500000
vt 0.875000 0.750000
vt 0.849057 0.750000
vt 0.653302 0.500000
vt 0.653302 0.750000
vt 0.125000 0.500000
vt 0.150943 0.500000
vt 0.150943 0.750000
vt 0.125000 0.750000
vt 0.605357 0.778302
vt 0.625000 0.778302
vt 0.625000 0.275943
vt 0.605357 0.275943
vt 0.396429 0.275943
vt 0.396429 0.471698
vt 0.396429 0.750000
vt 0.396429 0.778302
vt 0.396429 0.250000
vt 0.605357 0.778302
vt 0.396429 0.778302
vt 0.396429 0.974057
vt 0.396429 1.000000
vt 0.396429 0.500000
vt 0.396429 0.000000
vt 0.375000 0.000000
vt 0.375000 0.250000
vt 0.375000 0.471698
vt 0.375000 0.974057
vt 0.375000 1.000000
vt 0.375000 0.778302
vt 0.375000 0.275943
vt 0.396429 0.974057
vt 0.605357 0.974057
vn -0.8676 0.0000 0.4973
vn -0.4973 0.0000 -0.8676
vn 0.8676 0.0000 -0.4973
vn 0.4973 0.0000 0.8676
vn 0.0000 -1.0000 0.0000
vn 0.0000 1.0000 0.0000
usemtl Material
s off
f 168/264/34 153/265/34 155/266/34 169/267/34
f 175/268/35 164/269/35 159/270/35 170/271/35
f 170/271/36 159/270/36 157/272/36 171/273/36
f 172/274/37 163/275/37 153/276/37 168/277/37
f 166/278/38 158/279/38 156/280/38 165/281/38
f 161/282/39 155/283/39 153/284/39 163/285/39
f 164/286/39 161/282/39 163/285/39 167/287/39
f 154/288/38 160/289/38 162/290/38 152/291/38
f 174/292/37 167/293/37 163/275/37 172/274/37
f 169/267/35 155/266/35 161/294/35 173/295/35
f 171/273/37 157/272/37 167/293/37 174/292/37
f 159/270/39 164/286/39 167/287/39 157/272/39
f 160/289/38 166/278/38 165/281/38 162/290/38
f 173/295/35 161/294/35 164/269/35 175/268/35
f 180/296/35 173/295/35 175/268/35 182/297/35
f 178/298/37 171/273/37 174/292/37 181/299/37
f 176/300/35 169/267/35 173/295/35 180/296/35
f 181/299/34 174/292/34 184/301/34 187/302/34
f 179/303/37 172/274/37 168/277/37 183/304/37
f 177/305/36 170/271/36 171/273/36 178/298/36
f 182/297/35 175/268/35 170/271/35 177/305/35
f 183/306/34 168/264/34 169/267/34 176/300/34
f 152/307/34 183/306/34 176/300/34 154/308/34
f 166/309/35 182/297/35 177/305/35 158/279/35
f 158/279/36 177/305/36 178/298/36 156/280/36
f 162/310/37 179/303/37 183/304/37 152/311/37
f 165/312/37 181/299/37 179/303/37 162/310/37
f 154/308/35 176/300/35 180/296/35 160/313/35
f 156/280/37 178/298/37 181/299/37 165/312/37
f 160/313/35 180/296/35 182/297/35 166/309/35
f 172/274/36 179/303/36 186/314/36 185/315/36
f 179/303/39 181/299/39 187/302/39 186/314/39
f 174/292/38 172/274/38 185/315/38 184/301/38
usemtl Material.002
f 187/302/37 184/301/37 185/315/37 186/314/37
