# Blender v2.92.0 OBJ File: 'Tree.blend'
# www.blender.org
mtllib Tree.mtl
o Cylinder
v 0.000000 -0.999611 -0.366102
v 0.000000 0.999611 -0.366102
v 0.348183 -0.999611 -0.113132
v 0.348183 0.999611 -0.113132
v 0.215189 -0.999611 0.296183
v 0.215189 0.999611 0.296183
v -0.215189 -0.999611 0.296183
v -0.215189 0.999611 0.296183
v -0.348183 -0.999611 -0.113132
v -0.348183 0.999611 -0.113132
v 0.000000 0.042588 -1.000000
v 0.707107 0.042588 -0.707107
v 1.000000 0.042588 0.000000
v 0.707107 0.042588 0.707107
v -0.000000 0.042588 1.000000
v -0.707107 0.042588 0.707107
v -1.000000 0.042588 -0.000000
v -0.707107 0.042588 -0.707107
v 0.000000 3.868371 0.000000
v 0.000000 2.100943 -0.792689
v 0.560516 2.100943 -0.560516
v 0.792689 2.100943 0.000000
v 0.560516 2.100943 0.560516
v -0.000000 2.100943 0.792689
v -0.560516 2.100943 0.560516
v -0.792689 2.100943 -0.000000
v -0.560516 2.100943 -0.560516
v 0.000000 4.827527 0.000000
v 0.000000 3.697567 -0.552774
v 0.390870 3.697567 -0.390870
v 0.552774 3.697567 0.000000
v 0.390870 3.697567 0.390870
v -0.000000 3.697567 0.552774
v -0.390870 3.697567 0.390870
v -0.552774 3.697567 -0.000000
v -0.390870 3.697567 -0.390870
v 0.000000 5.598923 0.000000
vt 0.478254 0.324164
vt 0.250000 0.490000
vt 0.021746 0.324164
vt 0.108932 0.055836
vt 0.391068 0.055836
vt 0.250000 0.490000
vt 0.250000 0.250000
vt 0.419706 0.419706
vt 0.490000 0.250000
vt 0.419706 0.080294
vt 0.250000 0.010000
vt 0.080294 0.080294
vt 0.010000 0.250000
vt 0.750000 0.490000
vt 0.919706 0.419706
vt 0.990000 0.250000
vt 0.919706 0.080294
vt 0.750000 0.010000
vt 0.580294 0.080294
vt 0.510000 0.250000
vt 0.580294 0.419706
vt 0.080294 0.419706
vt 0.250000 0.490000
vt 0.250000 0.250000
vt 0.419706 0.419706
vt 0.490000 0.250000
vt 0.419706 0.080294
vt 0.250000 0.010000
vt 0.080294 0.080294
vt 0.010000 0.250000
vt 0.750000 0.490000
vt 0.919706 0.419706
vt 0.990000 0.250000
vt 0.919706 0.080294
vt 0.750000 0.010000
vt 0.580294 0.080294
vt 0.510000 0.250000
vt 0.580294 0.419706
vt 0.080294 0.419706
vt 0.250000 0.490000
vt 0.250000 0.250000
vt 0.419706 0.419706
vt 0.490000 0.250000
vt 0.419706 0.080294
vt 0.250000 0.010000
vt 0.080294 0.080294
vt 0.010000 0.250000
vt 0.750000 0.490000
vt 0.919706 0.419706
vt 0.990000 0.250000
vt 0.919706 0.080294
vt 0.750000 0.010000
vt 0.580294 0.080294
vt 0.510000 0.250000
vt 0.580294 0.419706
vt 0.080294 0.419706
vt 1.000000 0.500000
vt 1.000000 1.000000
vt 0.800000 1.000000
vt 0.800000 0.500000
vt 0.600000 1.000000
vt 0.600000 0.500000
vt 0.400000 1.000000
vt 0.400000 0.500000
vt 0.200000 1.000000
vt 0.200000 0.500000
vt 0.000000 1.000000
vt 0.000000 0.500000
vt 0.750000 0.490000
vt 0.978254 0.324164
vt 0.891068 0.055836
vt 0.608932 0.055836
vt 0.521746 0.324164
vn 0.0000 1.0000 -0.0000
vn 0.3720 0.2347 -0.8981
vn 0.8981 0.2347 -0.3720
vn 0.8981 0.2347 0.3720
vn 0.3720 0.2347 0.8981
vn -0.3720 0.2347 0.8981
vn -0.8981 0.2347 0.3720
vn 0.0000 -1.0000 0.0000
vn -0.8981 0.2347 -0.3720
vn -0.3720 0.2347 -0.8981
vn 0.3696 0.2594 -0.8923
vn 0.8923 0.2594 -0.3696
vn 0.8923 0.2594 0.3696
vn 0.3696 0.2594 0.8923
vn -0.3696 0.2594 0.8923
vn -0.8923 0.2594 0.3696
vn -0.8923 0.2594 -0.3696
vn -0.3696 0.2594 -0.8923
vn 0.5878 0.0000 -0.8090
vn 0.9511 0.0000 0.3090
vn -0.0000 0.0000 1.0000
vn -0.9511 0.0000 0.3090
vn -0.5878 0.0000 -0.8090
usemtl Material.001
s off
f 4/1/1 2/2/1 10/3/1 8/4/1 6/5/1
f 11/6/2 19/7/2 12/8/2
f 12/8/3 19/7/3 13/9/3
f 13/9/4 19/7/4 14/10/4
f 14/10/5 19/7/5 15/11/5
f 15/11/6 19/7/6 16/12/6
f 16/12/7 19/7/7 17/13/7
f 11/14/8 12/15/8 13/16/8 14/17/8 15/18/8 16/19/8 17/20/8 18/21/8
f 17/13/9 19/7/9 18/22/9
f 18/22/10 19/7/10 11/6/10
f 20/23/11 28/24/11 21/25/11
f 21/25/12 28/24/12 22/26/12
f 22/26/13 28/24/13 23/27/13
f 23/27/14 28/24/14 24/28/14
f 24/28/15 28/24/15 25/29/15
f 25/29/16 28/24/16 26/30/16
f 20/31/8 21/32/8 22/33/8 23/34/8 24/35/8 25/36/8 26/37/8 27/38/8
f 26/30/17 28/24/17 27/39/17
f 27/39/18 28/24/18 20/23/18
f 29/40/11 37/41/11 30/42/11
f 30/42/12 37/41/12 31/43/12
f 31/43/13 37/41/13 32/44/13
f 32/44/14 37/41/14 33/45/14
f 33/45/15 37/41/15 34/46/15
f 34/46/16 37/41/16 35/47/16
f 29/48/8 30/49/8 31/50/8 32/51/8 33/52/8 34/53/8 35/54/8 36/55/8
f 35/47/17 37/41/17 36/56/17
f 36/56/18 37/41/18 29/40/18
usemtl Material.002
f 1/57/19 2/58/19 4/59/19 3/60/19
f 3/60/20 4/59/20 6/61/20 5/62/20
f 5/62/21 6/61/21 8/63/21 7/64/21
f 7/64/22 8/63/22 10/65/22 9/66/22
f 9/66/23 10/65/23 2/67/23 1/68/23
f 1/69/8 3/70/8 5/71/8 7/72/8 9/73/8
